<svg width="24" height="24" viewBox="0 0 24 24" fill="none" xmlns="http://www.w3.org/2000/svg">
<path d="M12 0C18.6268 0 24 5.37321 24 12C24 18.6268 18.6268 24 12 24C5.37321 24 0 18.6268 0 12C1.20828e-07 5.37321 5.37321 1.20824e-07 12 0ZM12 2.03613C6.49821 2.03613 2.03613 6.49821 2.03613 12C2.03613 17.5018 6.49821 21.9639 12 21.9639C17.5018 21.9639 21.9639 17.5018 21.9639 12C21.9639 6.49821 17.5018 2.03613 12 2.03613ZM16.4297 7.5498C16.5474 7.5498 16.6443 7.646 16.6445 7.76367C16.6445 7.81456 16.6278 7.86582 16.5957 7.90332L13.1113 12.0547L16.5908 16.2041C16.623 16.2443 16.6416 16.2929 16.6416 16.3438C16.6415 16.464 16.5453 16.5574 16.4277 16.5576L14.6592 16.5498L12 13.3779L9.33984 16.5527L7.56934 16.5605C7.45163 16.5605 7.35571 16.4643 7.35547 16.3467C7.35604 16.2958 7.37388 16.2463 7.40625 16.207L10.8906 12.0576L7.40625 7.90625C7.37411 7.86607 7.35547 7.81749 7.35547 7.7666C7.35556 7.64615 7.45153 7.55273 7.56934 7.55273L9.33984 7.56055L12 10.7324L14.6621 7.55762L16.4297 7.5498Z" fill="#FF4D4F"/>
</svg>
